<svg id="svg" version="1.1" xmlns="http://www.w3.org/2000/svg" xmlns:xlink="http://www.w3.org/1999/xlink" width="400" height="400" viewBox="0, 0, 400,400"><g id="svgg"><path id="path0" d="M62.800 105.151 C 61.810 105.303,60.387 105.736,59.639 106.113 C 58.890 106.491,57.603 106.800,56.779 106.800 C 55.888 106.800,54.356 107.287,52.995 108.003 C 51.738 108.664,50.018 109.316,49.173 109.451 C 48.328 109.586,47.331 110.035,46.956 110.448 C 46.582 110.862,45.876 111.200,45.387 111.200 C 44.898 111.200,44.257 111.490,43.963 111.845 C 43.668 112.200,42.487 112.920,41.337 113.446 C 40.187 113.972,39.128 114.593,38.984 114.826 C 38.840 115.059,38.335 115.423,37.861 115.635 C 35.470 116.706,21.588 129.937,19.262 133.364 C 17.916 135.346,17.292 136.253,15.800 138.396 C 14.240 140.637,14.177 140.744,13.441 142.445 C 13.096 143.240,12.550 144.109,12.227 144.378 C 11.904 144.646,11.522 145.650,11.378 146.609 C 11.234 147.567,10.775 148.660,10.358 149.038 C 9.941 149.415,9.600 149.961,9.600 150.251 C 9.600 150.542,8.970 152.073,8.200 153.656 C 7.430 155.238,6.800 156.919,6.800 157.391 C 6.800 157.863,6.445 158.984,6.012 159.881 C 5.578 160.779,5.114 162.298,4.980 163.256 C 4.846 164.215,4.403 165.720,3.996 166.600 C 3.110 168.517,2.791 170.077,2.527 173.800 C 2.418 175.340,2.135 176.835,1.898 177.121 C -0.821 180.410,-0.710 216.879,2.034 222.095 C 2.236 222.477,2.400 223.951,2.400 225.371 C 2.400 226.791,2.580 228.064,2.800 228.200 C 3.020 228.336,3.200 229.061,3.200 229.811 C 3.200 230.562,3.530 231.766,3.934 232.488 C 4.338 233.210,4.785 234.657,4.927 235.705 C 5.070 236.753,5.549 238.361,5.993 239.280 C 6.437 240.199,6.800 241.369,6.800 241.881 C 6.800 242.763,7.274 243.864,8.229 245.200 C 8.465 245.530,8.901 246.610,9.199 247.600 C 9.497 248.590,10.066 249.769,10.464 250.219 C 10.862 250.670,11.301 251.606,11.440 252.299 C 11.578 252.992,12.031 253.866,12.446 254.242 C 12.861 254.617,13.200 255.255,13.200 255.659 C 13.200 256.063,13.830 257.218,14.600 258.227 C 15.370 259.236,16.000 260.374,16.000 260.756 C 16.000 261.138,16.540 261.968,17.200 262.600 C 17.860 263.232,18.400 263.951,18.400 264.196 C 18.400 264.442,19.030 265.254,19.800 266.000 C 20.570 266.746,21.200 267.549,21.200 267.784 C 21.200 268.331,31.674 278.800,32.222 278.800 C 32.448 278.800,33.428 279.610,34.400 280.600 C 35.372 281.590,36.368 282.400,36.614 282.400 C 36.859 282.400,37.483 282.850,38.000 283.400 C 38.517 283.950,39.197 284.400,39.512 284.400 C 39.826 284.400,40.830 284.904,41.742 285.519 C 42.654 286.134,43.670 286.766,44.000 286.923 C 44.330 287.080,45.140 287.554,45.800 287.975 C 46.460 288.397,47.334 288.755,47.742 288.771 C 48.150 288.787,49.325 289.222,50.353 289.739 C 51.381 290.255,52.874 290.800,53.671 290.949 C 54.468 291.099,55.340 291.486,55.609 291.811 C 55.878 292.135,56.515 292.400,57.025 292.400 C 57.535 292.400,58.064 292.580,58.200 292.800 C 58.336 293.020,59.506 293.200,60.800 293.200 C 62.094 293.200,63.245 293.349,63.358 293.532 C 64.441 295.285,88.557 295.743,93.027 294.095 C 94.367 293.600,96.371 293.200,97.503 293.200 C 98.630 293.200,99.664 293.020,99.800 292.800 C 99.936 292.580,100.476 292.400,101.000 292.400 C 101.524 292.400,102.053 292.238,102.175 292.040 C 102.297 291.842,103.343 291.458,104.499 291.185 C 105.654 290.913,107.449 290.265,108.487 289.745 C 109.524 289.225,110.613 288.800,110.905 288.800 C 111.665 288.800,121.997 283.576,123.364 282.500 C 123.993 282.005,124.664 281.600,124.854 281.600 C 125.044 281.600,125.532 281.285,125.937 280.900 C 126.343 280.515,127.198 279.890,127.837 279.511 C 130.047 278.203,130.608 277.793,132.642 276.000 C 135.879 273.148,138.852 270.800,139.227 270.800 C 141.993 270.800,144.178 262.971,141.971 260.974 C 141.547 260.590,141.199 260.079,141.198 259.838 C 141.197 259.597,139.762 257.960,138.008 256.200 C 136.255 254.440,134.814 252.820,134.807 252.600 C 134.801 252.380,133.806 251.157,132.597 249.882 C 131.389 248.606,130.400 247.432,130.400 247.271 C 130.400 247.110,129.124 245.723,127.565 244.189 C 126.006 242.655,123.897 240.320,122.878 239.000 C 120.491 235.909,120.180 235.600,119.452 235.600 C 119.119 235.600,118.749 235.441,118.629 235.247 C 117.740 233.808,110.247 234.393,108.487 236.038 C 107.803 236.677,107.112 237.200,106.952 237.200 C 106.792 237.200,105.362 238.415,103.775 239.900 C 100.429 243.030,98.669 244.400,97.994 244.400 C 97.731 244.400,96.981 244.850,96.327 245.400 C 95.673 245.950,94.803 246.400,94.393 246.400 C 93.983 246.400,93.536 246.580,93.400 246.800 C 93.264 247.020,92.623 247.200,91.976 247.200 C 91.329 247.200,90.800 247.380,90.800 247.600 C 90.800 247.820,90.476 248.000,90.080 248.000 C 89.684 248.000,89.147 248.213,88.886 248.474 C 87.921 249.439,74.465 249.110,72.688 248.078 C 71.856 247.595,70.911 247.200,70.588 247.200 C 70.265 247.200,70.000 247.020,70.000 246.800 C 70.000 246.580,69.662 246.400,69.249 246.400 C 68.836 246.400,68.274 246.130,68.000 245.800 C 67.726 245.470,67.282 245.200,67.013 245.200 C 66.744 245.200,66.198 244.840,65.800 244.400 C 65.402 243.960,64.834 243.600,64.538 243.600 C 64.242 243.600,64.000 243.404,64.000 243.165 C 64.000 242.926,62.920 241.606,61.600 240.231 C 60.280 238.857,59.200 237.544,59.200 237.315 C 59.200 237.086,58.942 236.684,58.626 236.422 C 57.819 235.751,53.732 227.289,53.400 225.600 C 53.249 224.830,52.692 223.266,52.163 222.125 C 51.483 220.660,51.200 219.343,51.200 217.648 C 51.200 216.328,51.020 215.136,50.800 215.000 C 50.580 214.864,50.400 214.324,50.400 213.800 C 50.400 213.276,50.240 212.748,50.044 212.627 C 48.858 211.894,49.256 186.682,50.497 184.000 C 50.857 183.223,51.204 181.237,51.278 179.535 C 51.371 177.421,51.614 176.243,52.064 175.735 C 52.423 175.331,52.925 173.979,53.180 172.731 C 53.435 171.483,53.904 170.246,54.222 169.982 C 54.540 169.718,54.800 169.145,54.800 168.710 C 54.800 167.820,57.373 162.631,58.425 161.400 C 58.801 160.960,59.226 160.211,59.370 159.736 C 60.170 157.092,67.756 151.573,71.400 150.983 C 72.280 150.841,73.560 150.534,74.245 150.302 C 75.671 149.818,82.107 150.863,84.200 151.918 C 86.315 152.985,90.400 156.407,90.400 157.112 C 90.400 157.304,90.850 157.883,91.400 158.400 C 91.950 158.917,92.400 159.603,92.400 159.926 C 92.400 160.248,92.661 160.712,92.981 160.956 C 93.735 161.533,96.800 167.568,96.800 168.477 C 96.800 168.861,97.138 169.778,97.552 170.515 C 97.966 171.251,98.429 172.472,98.582 173.227 C 99.361 177.077,100.978 178.782,106.312 181.374 C 108.853 182.609,110.316 182.663,112.400 181.600 C 113.262 181.160,114.428 180.800,114.989 180.800 C 115.551 180.800,116.323 180.644,116.705 180.454 C 118.029 179.793,120.213 179.134,123.000 178.553 C 124.540 178.232,126.520 177.630,127.400 177.216 C 128.280 176.801,129.990 176.353,131.200 176.221 C 132.410 176.089,134.120 175.646,135.000 175.236 C 135.880 174.827,137.375 174.260,138.322 173.975 C 140.249 173.396,142.226 171.627,143.025 169.768 C 143.316 169.091,143.834 168.304,144.177 168.019 C 145.127 167.231,145.047 161.264,144.063 159.512 C 143.658 158.790,143.192 157.483,143.028 156.607 C 142.863 155.731,142.385 154.302,141.964 153.432 C 141.544 152.562,141.187 151.569,141.171 151.225 C 141.155 150.881,140.797 150.060,140.375 149.400 C 139.954 148.740,139.500 147.930,139.367 147.600 C 138.610 145.720,137.429 143.600,137.137 143.600 C 136.952 143.600,136.800 143.268,136.800 142.861 C 136.800 141.940,135.678 139.653,134.721 138.625 C 134.325 138.198,134.000 137.687,134.000 137.488 C 134.000 137.120,133.154 135.934,131.000 133.279 C 130.340 132.465,129.620 131.512,129.400 131.160 C 127.810 128.617,121.138 121.200,120.441 121.200 C 120.301 121.200,119.260 120.390,118.129 119.400 C 116.997 118.410,115.906 117.600,115.705 117.600 C 115.504 117.600,114.917 117.150,114.400 116.600 C 113.883 116.050,113.222 115.600,112.930 115.600 C 112.639 115.600,112.400 115.439,112.400 115.242 C 112.400 115.045,111.259 114.333,109.865 113.661 C 108.471 112.988,107.098 112.160,106.816 111.819 C 106.533 111.479,105.902 111.200,105.413 111.200 C 104.924 111.200,104.198 110.840,103.800 110.400 C 103.402 109.960,102.795 109.600,102.451 109.600 C 101.652 109.600,98.585 108.454,96.888 107.521 C 96.166 107.125,94.859 106.800,93.982 106.800 C 93.106 106.800,92.077 106.644,91.695 106.454 C 89.113 105.166,87.965 105.054,76.400 104.966 C 69.910 104.917,63.790 105.000,62.800 105.151 M164.006 107.423 C 160.861 109.146,157.259 113.640,157.005 116.158 C 156.869 117.501,156.812 156.310,156.879 202.400 L 157.000 286.200 159.670 288.887 C 164.281 293.530,162.707 293.197,180.051 293.199 C 197.289 293.200,196.588 293.322,200.027 289.728 C 203.716 285.873,203.386 290.500,203.512 240.900 C 203.605 204.229,203.714 196.800,204.163 196.800 C 204.459 196.800,204.930 196.525,205.209 196.190 C 205.976 195.265,210.370 193.351,213.034 192.780 C 214.335 192.501,215.571 192.122,215.780 191.937 C 216.407 191.381,220.225 191.557,221.454 192.198 C 222.084 192.526,222.876 192.796,223.214 192.798 C 224.240 192.802,227.954 196.869,228.241 198.303 C 228.383 199.016,228.657 199.600,228.850 199.600 C 229.043 199.600,229.200 199.949,229.200 200.376 C 229.200 200.803,229.380 201.264,229.600 201.400 C 229.862 201.562,230.000 215.866,230.000 243.009 L 230.000 284.372 231.052 286.286 C 232.322 288.597,233.158 289.600,233.815 289.600 C 234.086 289.600,234.393 289.932,234.500 290.337 C 234.606 290.743,235.652 291.553,236.825 292.137 L 238.957 293.200 254.084 293.200 C 265.418 293.200,269.435 293.075,270.105 292.701 C 271.833 291.739,274.821 288.600,275.905 286.610 L 277.000 284.600 277.000 242.400 C 277.000 197.100,276.776 190.118,275.218 186.919 C 274.768 185.995,274.400 184.778,274.400 184.214 C 274.400 183.650,274.229 182.877,274.019 182.495 C 273.810 182.113,273.341 181.080,272.978 180.200 C 271.757 177.246,270.677 175.200,270.337 175.200 C 270.152 175.200,270.000 174.872,270.000 174.471 C 270.000 173.097,268.589 170.845,266.096 168.237 C 264.723 166.802,263.600 165.471,263.600 165.279 C 263.600 164.911,259.352 160.855,256.227 158.241 C 255.202 157.383,253.204 156.108,251.788 155.408 C 250.371 154.708,248.895 153.862,248.506 153.528 C 248.118 153.195,246.948 152.692,245.908 152.411 C 244.867 152.130,243.810 151.653,243.559 151.350 C 243.287 151.023,242.322 150.800,241.175 150.800 C 240.115 150.800,239.136 150.620,239.000 150.400 C 238.864 150.180,238.349 150.000,237.856 150.000 C 237.363 150.000,236.776 149.816,236.551 149.591 C 234.717 147.757,216.151 148.403,212.305 150.433 C 211.923 150.635,210.629 150.800,209.429 150.800 C 208.229 150.800,207.134 150.983,206.996 151.206 C 206.792 151.537,204.240 152.800,203.776 152.800 C 203.706 152.800,203.593 144.295,203.525 133.900 C 203.415 117.229,203.322 114.858,202.739 113.795 C 201.655 111.820,197.168 107.600,196.152 107.600 C 195.654 107.600,195.136 107.420,195.000 107.200 C 194.589 106.535,165.242 106.746,164.006 107.423 M331.800 109.171 C 330.700 109.348,329.120 109.878,328.288 110.347 C 327.456 110.816,326.160 111.200,325.408 111.200 C 324.655 111.200,323.896 111.448,323.720 111.750 C 323.544 112.053,322.413 112.814,321.207 113.441 C 318.132 115.040,311.748 121.576,310.261 124.647 C 309.635 125.941,308.683 127.865,308.147 128.923 C 307.558 130.086,307.010 132.143,306.763 134.123 C 306.537 135.925,306.184 137.571,305.977 137.780 C 305.448 138.313,305.505 142.945,306.047 143.487 C 306.293 143.733,306.637 145.352,306.812 147.085 C 307.063 149.574,307.479 150.945,308.798 153.618 C 311.307 158.705,311.357 158.780,314.384 161.943 C 317.788 165.500,317.785 165.200,314.424 165.200 C 312.865 165.200,311.530 165.390,311.380 165.632 C 311.233 165.870,310.597 166.379,309.966 166.762 C 308.759 167.496,306.800 170.082,306.800 170.941 C 306.800 171.219,306.536 171.796,306.213 172.224 C 305.549 173.101,305.413 174.637,305.969 174.981 C 306.172 175.106,306.462 175.792,306.614 176.505 C 306.765 177.217,307.168 178.116,307.509 178.503 C 307.850 178.889,308.325 179.595,308.564 180.071 C 309.221 181.374,311.523 182.469,314.098 182.702 C 316.282 182.900,317.083 183.531,316.000 184.200 C 315.747 184.356,315.591 189.399,315.575 197.924 C 315.541 215.746,314.481 230.764,313.156 232.180 C 312.960 232.389,312.800 233.883,312.800 235.499 C 312.800 237.568,312.575 238.904,312.040 240.011 C 311.622 240.876,311.156 242.654,311.004 243.962 C 310.822 245.531,310.468 246.576,309.964 247.032 C 309.544 247.413,309.200 248.122,309.200 248.608 C 309.200 249.094,308.860 249.924,308.445 250.452 C 308.029 250.980,307.074 252.580,306.321 254.006 C 305.273 255.993,304.724 256.627,303.976 256.715 C 300.857 257.082,296.989 259.985,296.558 262.282 C 296.421 263.012,296.150 263.707,295.955 263.828 C 295.760 263.949,295.600 264.750,295.600 265.610 C 295.600 267.241,294.871 268.000,293.303 268.000 C 292.281 268.000,287.445 272.765,286.539 274.664 C 285.475 276.894,285.526 283.608,286.622 285.644 C 288.168 288.515,289.588 290.342,290.485 290.614 C 290.988 290.767,291.760 291.186,292.200 291.546 C 294.285 293.251,292.893 293.200,337.733 293.200 C 383.446 293.200,382.061 293.255,383.607 291.392 C 383.877 291.066,384.306 290.800,384.560 290.800 C 385.363 290.800,390.400 285.427,390.400 284.570 C 390.400 284.124,390.595 283.565,390.833 283.327 C 391.280 282.880,391.133 278.165,390.596 275.718 C 390.290 274.324,386.490 270.400,385.447 270.400 C 385.116 270.400,384.610 270.081,384.323 269.691 C 384.035 269.301,383.035 268.644,382.100 268.230 C 380.619 267.575,380.400 267.316,380.400 266.218 C 380.400 262.601,375.950 257.416,372.409 256.907 C 370.329 256.608,370.204 256.522,369.812 255.136 C 369.585 254.335,369.085 253.333,368.700 252.909 C 368.315 252.484,368.000 251.954,368.000 251.730 C 368.000 251.507,367.644 251.001,367.208 250.607 C 366.772 250.213,366.302 249.283,366.162 248.541 C 366.023 247.798,365.750 247.093,365.555 246.972 C 365.360 246.851,365.200 246.409,365.200 245.989 C 365.200 245.568,364.869 244.634,364.465 243.912 C 364.061 243.190,363.606 241.532,363.453 240.226 C 363.300 238.921,363.026 237.661,362.843 237.426 C 362.261 236.681,361.917 234.721,361.574 230.200 C 361.178 224.995,360.838 222.765,360.343 222.147 C 360.143 221.898,359.893 215.238,359.785 207.347 C 359.678 199.456,359.508 190.705,359.408 187.900 L 359.226 182.800 360.599 182.800 C 367.638 182.800,372.684 173.254,367.792 169.193 C 367.466 168.923,367.200 168.485,367.200 168.221 C 367.200 167.693,365.907 166.483,364.505 165.700 C 364.013 165.425,362.308 165.200,360.715 165.200 L 357.820 165.200 360.710 162.291 C 362.300 160.690,363.600 159.175,363.600 158.924 C 363.600 158.672,363.767 158.407,363.972 158.333 C 364.802 158.036,368.000 151.064,368.000 149.552 C 368.000 148.712,368.391 147.344,368.870 146.512 C 370.170 144.251,370.188 137.418,368.900 134.704 C 368.405 133.662,368.000 132.228,368.000 131.518 C 368.000 130.139,365.221 124.047,364.208 123.207 C 363.874 122.929,363.600 122.496,363.600 122.244 C 363.600 121.360,355.828 114.131,353.978 113.294 C 352.975 112.840,351.918 112.183,351.629 111.834 C 351.339 111.485,350.618 111.200,350.026 111.200 C 349.434 111.200,347.971 110.726,346.775 110.146 C 344.394 108.992,336.203 108.459,331.800 109.171 " stroke="none" fill="#0404fc" fill-rule="evenodd"></path><path id="path1" d="" stroke="none" fill="#0804fc" fill-rule="evenodd"></path></g></svg>